<svg width="18" height="18" viewBox="0 0 18 18" fill="none" xmlns="http://www.w3.org/2000/svg">
<path id="ic_add" opacity="0.7" fill-rule="evenodd" clip-rule="evenodd" d="M2.63604 15.3639C6.15076 18.8786 11.8492 18.8786 15.364 15.3639C18.8787 11.8491 18.8787 6.15065 15.364 2.63593C11.8492 -0.878785 6.15076 -0.878785 2.63604 2.63593C-0.87868 6.15065 -0.87868 11.8491 2.63604 15.3639ZM12.8969 9.77018L9.9 9.77018V12.767C9.9 13.2658 9.50052 13.6702 9 13.6702C8.50294 13.6702 8.1 13.2699 8.1 12.767V9.77018L5.10314 9.77018C4.60435 9.77018 4.2 9.3707 4.2 8.87018C4.2 8.37312 4.60028 7.97018 5.10314 7.97018H8.1L8.1 4.97332C8.1 4.47453 8.49948 4.07018 9 4.07018C9.49706 4.07018 9.9 4.47045 9.9 4.97332L9.9 7.97018H12.8969C13.3956 7.97018 13.8 8.36965 13.8 8.87018C13.8 9.36723 13.3997 9.77018 12.8969 9.77018Z" fill="#A7ADB7"/>
</svg>
