<svg width="15" height="20" viewBox="0 0 15 20" fill="none" xmlns="http://www.w3.org/2000/svg">
<path opacity="0.3" d="M0 1.90466L7.15446 0.541902C7.38283 0.498403 7.61717 0.498403 7.84554 0.541902L15 1.90466V10.7456C15 13.5403 13.5828 16.1378 11.25 17.6189L7.99687 19.6844C7.69287 19.8774 7.30713 19.8774 7.00313 19.6844L3.75 17.6189C1.41718 16.1378 0 13.5403 0 10.7456V1.90466Z" fill="#00B600"/>
<path d="M6.72656 12.1427C6.50195 12.1427 6.27734 12.0514 6.09766 11.8689L4.30078 10.0435C3.94141 9.67841 3.94141 9.13079 4.30078 8.76571C4.66016 8.40063 5.24414 8.40063 5.55859 8.76571L6.72656 9.95222L9.69141 6.94031C10.0508 6.57523 10.5898 6.57523 10.9492 6.94031C11.3086 7.30539 11.3086 7.85301 10.9492 8.21809L7.35547 11.8689C7.17578 12.0514 6.95117 12.1427 6.72656 12.1427Z" fill="#00B600"/>
</svg>
