<svg width="16" height="16" viewBox="0 0 16 16" fill="none" xmlns="http://www.w3.org/2000/svg">
<path id="ic_arrow-up" fill-rule="evenodd" clip-rule="evenodd" d="M0.334735 8.80808C0.781048 9.2544 1.50467 9.2544 1.95098 8.80808L6.85714 3.90192V14.8571C6.85714 15.4883 7.36881 16 8 16C8.63118 16 9.14285 15.4883 9.14285 14.8571V3.7408L14.0849 8.271C14.5502 8.6975 15.2731 8.66607 15.6996 8.20079C16.1261 7.73551 16.0947 7.01258 15.6294 6.58607L8.77496 0.302842C8.75204 0.281681 8.72825 0.261446 8.70364 0.242198C8.51644 0.0957299 8.28241 0.00636053 8.02775 0.000291905M7.99056 0C7.81641 0.00140859 7.65154 0.041769 7.50424 0.112797C7.39219 0.166718 7.28721 0.239914 7.1943 0.332277M7.19157 0.335L0.334735 7.19184C-0.111578 7.63815 -0.111578 8.36177 0.334735 8.80808" fill="white"/>
</svg>
