<svg width="28" height="28" viewBox="0 0 28 28" fill="none" xmlns="http://www.w3.org/2000/svg">
<path opacity="0.7" fill-rule="evenodd" clip-rule="evenodd" d="M14 28C21.732 28 28 21.732 28 14C28 6.26801 21.732 0 14 0C6.26801 0 0 6.26801 0 14C0 21.732 6.26801 28 14 28ZM19.1334 10.5607L15.837 13.8571L19.1334 17.1535C19.682 17.7021 19.6874 18.5863 19.1368 19.1368C18.5901 19.6836 17.7066 19.6865 17.1535 19.1334L13.8571 15.837L10.5607 19.1334C10.0121 19.682 9.12793 19.6874 8.57738 19.1368C8.03065 18.5901 8.02772 17.7066 8.58084 17.1535L11.8772 13.8571L8.58084 10.5607C8.0322 10.0121 8.02684 9.12793 8.57738 8.57738C9.12412 8.03065 10.0076 8.02772 10.5607 8.58084L13.8571 11.8772L17.1535 8.58084C17.7021 8.0322 18.5863 8.02684 19.1368 8.57738C19.6836 9.12412 19.6865 10.0076 19.1334 10.5607Z" fill="#A7ADB7"/>
</svg>
