<svg width="21" height="16" viewBox="0 0 21 16" fill="none" xmlns="http://www.w3.org/2000/svg">
<path id="ic_like" fill-rule="evenodd" clip-rule="evenodd" d="M7.62038 14.9333V5.33333L10.0461 1.37199C10.5673 0.520811 11.5061 0 12.5192 0C12.5643 0 12.6093 0.00200226 12.6542 0.00600062C13.4744 0.07906 14.0789 0.789776 14.0043 1.59343L13.6078 5.86667L17.5162 5.61136C17.8034 5.59261 18.0918 5.61112 18.374 5.66642C20.1427 6.01301 21.2897 7.69885 20.9359 9.43185L20.1204 13.4276C19.815 14.9233 18.4747 16 16.9179 16H13.0062C11.6021 16 10.2072 15.7782 8.87513 15.3431L7.62038 14.9333ZM2 4.26667C0.895431 4.26667 0 5.1621 0 6.26667V14C0 15.1046 0.895431 16 2 16H3.44313C4.5477 16 5.44313 15.1046 5.44313 14V6.26667C5.44313 5.1621 4.5477 4.26667 3.44313 4.26667H2Z" fill="#00B600"/>
</svg>
