<svg width="17" height="16" viewBox="0 0 17 16" fill="none" xmlns="http://www.w3.org/2000/svg">
<g id="ic_reviews">
<path id="Combined-Shape 3" fill-rule="evenodd" clip-rule="evenodd" d="M17 10.9179L16.9777 10.9268L16.9777 10.9179V2.72948C16.9777 1.22203 15.7775 0 14.297 0H2.68069C1.20019 0 0 1.22203 0 2.72948V10.9179C0 12.4254 1.20019 13.6474 2.68069 13.6474H13.4257L15.4746 15.7335C15.6422 15.9041 15.8694 16 16.1064 16C16.5999 16 17 15.5927 17 15.0902V10.9179ZM3 6.75C3 7.44036 3.56825 8 4.26923 8C4.97021 8 5.53846 7.44036 5.53846 6.75C5.53846 6.05964 4.97021 5.5 4.26923 5.5C3.56825 5.5 3 6.05964 3 6.75ZM7.23077 6.75C7.23077 7.44036 7.79902 8 8.5 8C9.20098 8 9.76923 7.44036 9.76923 6.75C9.76923 6.05964 9.20098 5.5 8.5 5.5C7.79902 5.5 7.23077 6.05964 7.23077 6.75ZM12.7307 8C12.0297 8 11.4614 7.44036 11.4614 6.75C11.4614 6.05964 12.0297 5.5 12.7307 5.5C13.4316 5.5 13.9999 6.05964 13.9999 6.75C13.9999 7.44036 13.4316 8 12.7307 8Z" fill="#A7ADB7" fill-opacity="0.7"/>
</g>
</svg>
